<?xml version="1.0" encoding="UTF-8"?>
<svg version="1.1" xmlns="http://www.w3.org/2000/svg" width="460" height="460">
<path d="M0 0 C1.093125 0.66 2.18625 1.32 3.3125 2 C3.3125 2.66 3.3125 3.32 3.3125 4 C3.910625 4.103125 4.50875 4.20625 5.125 4.3125 C10.07693593 5.86882272 13.23332375 11.39862366 15.6875 15.75 C19.01397461 23.90477532 18.89563025 35.15748393 16.18359375 43.453125 C15.0211574 45.77137414 13.82598814 47.89733254 12.3125 50 C11.6525 50 10.9925 50 10.3125 50 C10.3125 50.99 10.3125 51.98 10.3125 53 C5.80982131 59.14001639 -3.47420142 62.55734028 -10.6875 64 C-18.08312276 64.93524412 -25.0533007 63.33883687 -31.6875 60 C-33.45006754 58.41238361 -35.15995214 56.76433892 -36.8125 55.0625 C-39.92344889 51.87134445 -39.92344889 51.87134445 -44.0390625 50.875 C-46.77173725 51.65830742 -49.13793605 52.73958177 -51.6875 54 C-54.06063039 55.00442878 -56.43573894 56.00419286 -58.8125 57 C-60.60107422 57.78503906 -60.60107422 57.78503906 -62.42578125 58.5859375 C-64.93594033 59.67417413 -67.43052777 60.69157895 -70 61.625 C-72.72954085 62.64279489 -75.30108253 63.72033044 -77.9375 64.9375 C-82.4748443 67.00136147 -87.13088164 68.50569831 -91.890625 69.97265625 C-94.6992897 70.90450068 -94.6992897 70.90450068 -97.08203125 72.44140625 C-100.28430253 74.35700781 -103.63201086 75.60900793 -107.125 76.875 C-107.82149658 77.1325708 -108.51799316 77.3901416 -109.2355957 77.65551758 C-112.70374223 78.93284219 -116.18176028 80.1785697 -119.671875 81.39453125 C-121.50492188 82.03455078 -121.50492188 82.03455078 -123.375 82.6875 C-124.47199219 83.06261719 -125.56898438 83.43773437 -126.69921875 83.82421875 C-129.5929722 84.96280671 -132.07748667 86.31971313 -134.6875 88 C-133.91148437 88.29132813 -133.13546875 88.58265625 -132.3359375 88.8828125 C-126.39338385 91.13786269 -120.51923737 93.47072963 -114.6875 96 C-106.71994618 99.44733013 -98.64266737 102.55338967 -90.4921875 105.5390625 C-89.77724121 105.80267578 -89.06229492 106.06628906 -88.32568359 106.33789062 C-86.93709043 106.84906034 -85.54686706 107.35583099 -84.15478516 107.85742188 C-80.37995891 109.24739573 -77.12228431 110.93481571 -73.6875 113 C-71.2570956 113.98934364 -68.84076817 114.92315707 -66.375 115.8125 C-64.96218355 116.33187887 -63.54942496 116.85141511 -62.13671875 117.37109375 C-61.4101709 117.63647949 -60.68362305 117.90186523 -59.93505859 118.17529297 C-56.17790109 119.55392408 -52.43335803 120.96602304 -48.6875 122.375 C-47.33339096 122.88296613 -45.97922968 123.39079308 -44.625 123.8984375 C-43.1709375 124.44371094 -43.1709375 124.44371094 -41.6875 125 C-42.6775 123.824375 -42.6775 123.824375 -43.6875 122.625 C-45.6875 120 -45.6875 120 -45.6875 118 C-46.6775 117.67 -47.6675 117.34 -48.6875 117 C-48.6875 116.34 -48.6875 115.68 -48.6875 115 C-49.3475 115 -50.0075 115 -50.6875 115 C-50.77 114.38125 -50.8525 113.7625 -50.9375 113.125 C-51.47398121 110.84276697 -51.47398121 110.84276697 -53.5625 110 C-54.26375 109.67 -54.965 109.34 -55.6875 109 C-57.76055567 107.14174287 -58.61165563 105.66804963 -58.92675781 102.89257812 C-58.98298629 100.338783 -58.94854442 97.80331143 -58.875 95.25 C-58.85469727 93.91775391 -58.85469727 93.91775391 -58.83398438 92.55859375 C-58.79871309 90.37177422 -58.74942752 88.18620034 -58.6875 86 C-50.75581794 88.99334784 -42.90772598 92.13851992 -35.08520508 95.40356445 C-29.33926666 97.78054452 -23.5353365 99.87584649 -17.640625 101.859375 C-14.6875 103 -14.6875 103 -12.25 104.46875 C-9.12129478 106.33834214 -5.85410834 107.53062282 -2.4375 108.75 C3.41516973 110.88693654 9.19134443 113.15406915 14.9375 115.5625 C20.09986218 117.7230659 25.27076489 119.73209939 30.5625 121.5625 C36.240574 123.53945499 41.59024221 125.94307251 47.015625 128.5234375 C51.52674801 130.54382198 56.1470719 132.14754698 60.828125 133.7265625 C64.28811532 134.99108811 67.61014974 136.42783311 70.96533203 137.94287109 C81.10429921 142.50930836 91.32869429 146.93592169 101.96484375 150.2109375 C104.21065985 150.96577087 106.22498224 151.8860114 108.3125 153 C108.3125 153.66 108.3125 154.32 108.3125 155 C105.64649497 156.10578618 102.97972466 157.20966252 100.3125 158.3125 C99.56871094 158.62123047 98.82492187 158.92996094 98.05859375 159.24804688 C94.39202048 160.76250105 90.71958077 162.23744041 87 163.6171875 C84.36729583 164.60445156 81.84846725 165.61556718 79.3125 166.8125 C74.36076527 169.0562548 69.27917486 170.90526094 64.18212891 172.78613281 C60.62692924 174.10608725 57.13172589 175.46938428 53.6875 177.0625 C48.80056344 179.31872933 43.72364596 181.00504582 38.6484375 182.78515625 C35.29226063 184.00737054 32.08969135 185.40455756 28.8515625 186.90234375 C25.38630114 188.40040289 21.85353424 189.69320906 18.3125 191 C13.25050161 192.87030828 8.27744589 194.82045019 3.37109375 197.07421875 C0.29054644 198.45958822 -2.85116323 199.68121965 -5.9921875 200.921875 C-10.0561661 202.54746644 -14.08724815 204.25048064 -18.12109375 205.94921875 C-19.9510376 206.69846517 -21.8115847 207.3746949 -23.6875 208 C-23.79707031 208.85722656 -23.90664062 209.71445312 -24.01953125 210.59765625 C-25.44893488 220.90563199 -27.59577564 229.7578373 -35.8125 236.875 C-38.6875 239 -38.6875 239 -40.6875 239 C-40.6875 239.66 -40.6875 240.32 -40.6875 241 C-49.30750232 244.69428671 -59.40793034 245.75243804 -68.54296875 243.203125 C-70.70277277 242.26250683 -72.67590725 241.22132417 -74.6875 240 C-75.574375 239.566875 -76.46125 239.13375 -77.375 238.6875 C-83.54037808 234.18844032 -87.31333381 228.19508365 -89.6875 221 C-90.21079571 217.64276952 -90.2501235 214.39210644 -90.1875 211 C-90.21070313 209.74316406 -90.21070313 209.74316406 -90.234375 208.4609375 C-90.18832061 201.0231535 -88.20622648 194.91642014 -83.3125 189.25 C-82.44625 188.5075 -81.58 187.765 -80.6875 187 C-79.800625 186.154375 -78.91375 185.30875 -78 184.4375 C-70.81583857 178.69017086 -63.13905645 177.32834404 -54.08984375 177.61328125 C-45.50231927 178.58936038 -37.34471116 182.63494152 -31.75 189.3125 C-31.399375 189.869375 -31.04875 190.42625 -30.6875 191 C-24.70990818 189.10709592 -18.97334529 186.90567601 -13.203125 184.45703125 C-8.99496153 182.71298128 -4.75103945 181.07355498 -0.5 179.4375 C4.8808413 177.36354734 10.20284645 175.23517167 15.4453125 172.828125 C18.02407386 171.68440657 20.66369494 170.73696591 23.3125 169.76953125 C25.35439802 168.98387908 27.32523659 168.10209282 29.3125 167.1875 C34.23680907 164.96003957 39.2813081 163.0966372 44.34838867 161.22485352 C49.07674895 159.47623759 53.7514198 157.62999265 58.39453125 155.6640625 C60.3125 155 60.3125 155 63.3125 155 C63.3125 154.34 63.3125 153.68 63.3125 153 C62.52488281 152.91363281 61.73726562 152.82726562 60.92578125 152.73828125 C56.19363326 151.77138831 51.95597656 150.02113935 47.5 148.1875 C46.64857422 147.84396484 45.79714844 147.50042969 44.91992188 147.14648438 C40.80230918 145.47497823 36.71926581 143.74834344 32.66796875 141.921875 C28.64980855 140.11907549 24.57755647 138.55941697 20.4375 137.0625 C15.72127029 135.33101707 11.11166292 133.51772166 6.5625 131.375 C2.90803455 129.6568558 -0.71325681 128.28360456 -4.5625 127.0625 C-10.19924454 125.26665811 -15.41437372 122.86767789 -20.75 120.328125 C-24.04205894 118.8396941 -27.1772135 117.8163457 -30.6875 117 C-29.11487618 121.71787145 -25.37729634 124.35674862 -21.79296875 127.69921875 C-16.29496374 133.16960022 -13.09013488 137.36294844 -12.92504883 145.34106445 C-13.03363868 148.92169994 -13.29181389 152.43882502 -13.6875 156 C-14.39777344 155.71382812 -15.10804688 155.42765625 -15.83984375 155.1328125 C-18.63412039 154.02123469 -21.43965749 152.94525028 -24.25 151.875 C-48.7130404 142.46827912 -48.7130404 142.46827912 -60.1640625 137.0859375 C-64.00402135 135.43344747 -67.96476948 134.20934919 -71.9609375 132.9921875 C-74.6875 132 -74.6875 132 -76.9140625 130.6015625 C-80.95368875 128.26882058 -85.2719801 126.96544066 -89.6875 125.5 C-95.05131088 123.71983668 -99.87671242 122.00982608 -104.6875 119 C-106.85703622 118.16035427 -109.04682156 117.37192511 -111.25 116.625 C-117.86032727 114.37825293 -124.25807773 111.71900682 -130.6875 109 C-147.01766587 102.07415355 -147.01766587 102.07415355 -163.5625 95.6875 C-169.50237034 93.51120095 -175.12942942 91.01952873 -180.6875 88 C-179.6875 86 -179.6875 86 -177.28125 85.0703125 C-176.2603125 84.75835937 -175.239375 84.44640625 -174.1875 84.125 C-169.6023292 82.66164762 -165.26308616 81.01687736 -160.8984375 79 C-158.52062116 77.92452123 -156.11558165 76.95629062 -153.6875 76 C-150.54516846 74.75947895 -147.44961071 73.46209427 -144.375 72.0625 C-139.70715865 69.95787679 -134.93548289 68.16874352 -130.1484375 66.35546875 C-126.59992852 64.96570282 -123.11537275 63.46694589 -119.625 61.9375 C-114.26685702 59.60527259 -108.89862277 57.65497349 -103.30859375 55.95703125 C-100.63281912 55.07426074 -100.63281912 55.07426074 -98.20703125 53.5078125 C-95.49414471 51.8842866 -92.9544933 50.99234053 -89.9375 50.0625 C-85.62168252 48.67266047 -81.55606346 47.112425 -77.44921875 45.20703125 C-72.69285234 43.1282233 -67.83082348 41.31228174 -62.98193359 39.46166992 C-62.2286377 39.17267822 -61.4753418 38.88368652 -60.69921875 38.5859375 C-60.02334717 38.3286084 -59.34747559 38.0712793 -58.65112305 37.80615234 C-56.64561466 37.0258468 -56.64561466 37.0258468 -54.68676758 35.90087891 C-52.6875 35 -52.6875 35 -48.6875 35 C-48.77 33.7625 -48.8525 32.525 -48.9375 31.25 C-48.9375 22.99910731 -45.98635422 14.35862507 -40.6875 8 C-40.0275 8 -39.3675 8 -38.6875 8 C-38.3575 7.01 -38.0275 6.02 -37.6875 5 C-36.6975 5 -35.7075 5 -34.6875 5 C-34.6875 4.34 -34.6875 3.68 -34.6875 3 C-25.22155897 -3.81353082 -10.67555743 -4.72774686 0 0 Z M-29.625 21.0625 C-32.27949302 25.9030461 -32.32883839 31.14960718 -31.125 36.5 C-28.76241778 40.60883864 -25.27641272 45.11866801 -20.66796875 46.6875 C-14.40113642 47.67634928 -10.24314398 46.72113174 -4.6875 44 C-4.6875 43.34 -4.6875 42.68 -4.6875 42 C-3.6975 41.67 -2.7075 41.34 -1.6875 41 C1.58511767 36.15167753 2.07162629 31.66814296 1.3125 26 C0.17204011 22.54567526 0.17204011 22.54567526 -1.6875 20 C-2.6775 19.67 -3.6675 19.34 -4.6875 19 C-5.0175 18.01 -5.3475 17.02 -5.6875 16 C-14.33098623 10.86793005 -23.23265928 14.2577502 -29.625 21.0625 Z M-69.5625 199.1875 C-72.86093212 203.55307193 -74.78381987 207.59200317 -74.5625 213.125 C-73.57999691 216.35322445 -72.4352119 219.10955339 -70.6875 222 C-69.6975 222.33 -68.7075 222.66 -67.6875 223 C-67.6875 223.66 -67.6875 224.32 -67.6875 225 C-61.95535516 227.55899323 -57.813301 228.8009855 -51.6875 227 C-48.09222627 225.54031887 -45.32742517 223.76791021 -42.8125 220.75 C-40.22801583 214.43237204 -40.18104013 209.32582729 -42.6875 203 C-44.54466187 200.09190457 -44.54466187 200.09190457 -46.6875 198 C-47.3475 198 -48.0075 198 -48.6875 198 C-48.6875 197.34 -48.6875 196.68 -48.6875 196 C-56.79919951 193.33445335 -62.68584851 193.95526517 -69.5625 199.1875 Z " fill="#000000" transform="translate(274.6875,109)"/>
<path d="M0 0 C2.3984728 0.76328757 4.79353649 1.53529696 7.1875 2.3125 C7.86103516 2.52583984 8.53457031 2.73917969 9.22851562 2.95898438 C13.1805193 4.25061484 16.44033578 5.81845949 20 8 C21.8985248 8.69736316 23.81716499 9.3417982 25.75 9.9375 C30.24997008 11.3843119 34.51264065 13.02535664 38.80078125 15.00390625 C41.93524728 16.42360223 45.1326428 17.66871925 48.33203125 18.93359375 C51.23394181 20.09350822 54.11734774 21.29305085 57 22.5 C60.6128751 24.01225942 64.23241337 25.49837971 67.875 26.9375 C71.91578266 28.53697647 75.89361566 30.25814435 79.875 32 C85.29695935 34.34734772 90.72721324 36.32629639 96.37890625 38.04296875 C99 39 99 39 101.35546875 40.4296875 C104.6648973 42.39481347 108.14198781 43.64686685 111.75 44.9375 C116.10266297 46.52799029 120.41842002 48.11001193 124.625 50.0625 C128.28361849 51.7489489 132.01148903 53.10279386 135.8125 54.4375 C144.41697725 57.46069471 152.92458447 60.73797514 161 65 C157.79576564 66.65947221 154.52314814 68.0629903 151.1875 69.4375 C147.97929879 70.76145367 144.78017852 72.09565137 141.59765625 73.48046875 C137.85067371 75.06307049 134.069379 76.48051283 130.25 77.875 C125.53923979 79.61381677 120.92258164 81.42365225 116.375 83.5625 C111.17127546 86.00809427 105.82455261 87.86477073 100.3984375 89.75390625 C96.48030249 91.19055575 92.757518 92.90474745 88.984375 94.6796875 C84.65487032 96.59509664 80.22163542 98.19953316 75.77978516 99.83300781 C71.41824273 101.4446777 67.16294079 103.19205566 62.9375 105.13671875 C60.98159349 106.00820129 59.01101426 106.76550846 57 107.5 C54.15280932 108.54096893 51.38869907 109.69141112 48.625 110.9375 C45.32911372 112.41693595 42.02373953 113.86357447 38.6875 115.25 C37.48673828 115.75273437 37.48673828 115.75273437 36.26171875 116.265625 C34 117 34 117 30 117 C30.226875 117.9075 30.45375 118.815 30.6875 119.75 C31.68848648 127.00715201 29.37383779 134.62628367 25.125 140.5 C22.69626986 143.39997629 20.16274181 145.89150546 17 148 C16.34 148 15.68 148 15 148 C15 148.66 15 149.32 15 150 C12.36 150.99 9.72 151.98 7 153 C7 153.66 7 154.32 7 155 C-10.16308955 155.7581242 -10.16308955 155.7581242 -18 151 C-18.886875 150.566875 -19.77375 150.13375 -20.6875 149.6875 C-26.85287808 145.18844032 -30.62583381 139.19508365 -33 132 C-33.52329571 128.64276952 -33.5626235 125.39210644 -33.5 122 C-33.51546875 121.16210938 -33.5309375 120.32421875 -33.546875 119.4609375 C-33.50082061 112.0231535 -31.51872648 105.91642014 -26.625 100.25 C-25.75875 99.5075 -24.8925 98.765 -24 98 C-22.6696875 96.7315625 -22.6696875 96.7315625 -21.3125 95.4375 C-14.12833857 89.69017086 -6.45155645 88.32834404 2.59765625 88.61328125 C11.18518073 89.58936038 19.34278884 93.63494152 24.9375 100.3125 C25.288125 100.869375 25.63875 101.42625 26 102 C31.97759182 100.10709592 37.71415471 97.90567601 43.484375 95.45703125 C47.69253847 93.71298128 51.93646055 92.07355498 56.1875 90.4375 C61.5683413 88.36354734 66.89034645 86.23517167 72.1328125 83.828125 C74.71157386 82.68440657 77.35119494 81.73696591 80 80.76953125 C82.04189802 79.98387908 84.01273659 79.10209282 86 78.1875 C90.92430907 75.96003957 95.9688081 74.0966372 101.03588867 72.22485352 C105.76424895 70.47623759 110.4389198 68.62999265 115.08203125 66.6640625 C117 66 117 66 120 66 C120 65.34 120 64.68 120 64 C119.21238281 63.91363281 118.42476562 63.82726562 117.61328125 63.73828125 C112.88113326 62.77138831 108.64347656 61.02113935 104.1875 59.1875 C103.33607422 58.84396484 102.48464844 58.50042969 101.60742188 58.14648438 C97.48980918 56.47497823 93.40676581 54.74834344 89.35546875 52.921875 C85.33730855 51.11907549 81.26505647 49.55941697 77.125 48.0625 C72.40877029 46.33101707 67.79916292 44.51772166 63.25 42.375 C59.59553455 40.6568558 55.97424319 39.28360456 52.125 38.0625 C44.0743874 35.48756516 36.53320325 31.80281895 29 28 C29.495 27.505 29.495 27.505 30 27 C29.38253906 26.75765625 28.76507813 26.5153125 28.12890625 26.265625 C23.13542078 24.28951203 18.20612272 22.22258759 13.3125 20.01171875 C9.90313285 18.52012062 6.43850758 17.17602686 2.96875 15.83203125 C1 15 1 15 0 14 C-0.07271741 11.64686445 -0.08370868 9.29166332 -0.0625 6.9375 C-0.05347656 5.64714844 -0.04445312 4.35679687 -0.03515625 3.02734375 C-0.02355469 2.02832031 -0.01195312 1.02929688 0 0 Z M-12.875 110.1875 C-16.17343212 114.55307193 -18.09631987 118.59200317 -17.875 124.125 C-16.89249691 127.35322445 -15.7477119 130.10955339 -14 133 C-13.01 133.33 -12.02 133.66 -11 134 C-11 134.66 -11 135.32 -11 136 C-5.26785516 138.55899323 -1.125801 139.8009855 5 138 C8.59527373 136.54031887 11.36007483 134.76791021 13.875 131.75 C16.45948417 125.43237204 16.50645987 120.32582729 14 114 C12.14283813 111.09190457 12.14283813 111.09190457 10 109 C9.34 109 8.68 109 8 109 C8 108.34 8 107.68 8 107 C-0.11169951 104.33445335 -5.99834851 104.95526517 -12.875 110.1875 Z " fill="#000000" transform="translate(218,198)"/>
<path d="M0 0 C7.93168206 2.99334784 15.77977402 6.13851992 23.60229492 9.40356445 C29.34823334 11.78054452 35.1521635 13.87584649 41.046875 15.859375 C44 17 44 17 46.4375 18.46875 C49.56620522 20.33834214 52.83339166 21.53062282 56.25 22.75 C62.10266973 24.88693654 67.87884443 27.15406915 73.625 29.5625 C78.78736218 31.7230659 83.95826489 33.73209939 89.25 35.5625 C94.928074 37.53945499 100.27774221 39.94307251 105.703125 42.5234375 C110.21424801 44.54382198 114.8345719 46.14754698 119.515625 47.7265625 C122.97561532 48.99108811 126.29764974 50.42783311 129.65283203 51.94287109 C139.79179921 56.50930836 150.01619429 60.93592169 160.65234375 64.2109375 C162.89815985 64.96577087 164.91248224 65.8860114 167 67 C167 67.66 167 68.32 167 69 C164.33399497 70.10578618 161.66722466 71.20966252 159 72.3125 C158.25621094 72.62123047 157.51242187 72.92996094 156.74609375 73.24804688 C153.07952048 74.76250105 149.40708077 76.23744041 145.6875 77.6171875 C143.05479583 78.60445156 140.53596725 79.61556718 138 80.8125 C133.04826527 83.0562548 127.96667486 84.90526094 122.86962891 86.78613281 C119.31442924 88.10608725 115.81922589 89.46938428 112.375 91.0625 C107.48806344 93.31872933 102.41114596 95.00504582 97.3359375 96.78515625 C93.97976063 98.00737054 90.77719135 99.40455756 87.5390625 100.90234375 C84.07380114 102.40040289 80.54103424 103.69320906 77 105 C71.93800161 106.87030828 66.96494589 108.82045019 62.05859375 111.07421875 C58.97804644 112.45958822 55.83633677 113.68121965 52.6953125 114.921875 C48.6313339 116.54746644 44.60025185 118.25048064 40.56640625 119.94921875 C38.7364624 120.69846517 36.8759153 121.3746949 35 122 C34.89042969 122.85722656 34.78085938 123.71445312 34.66796875 124.59765625 C33.23856512 134.90563199 31.09172436 143.7578373 22.875 150.875 C20 153 20 153 18 153 C18 153.66 18 154.32 18 155 C13.49646738 156.75747614 9.82360189 157.19294408 5 157 C8.79541663 154.78600697 12.75629421 153.99019802 17 153 C17 152.34 17 151.68 17 151 C18.97946592 149.63636792 20.9819245 148.30581356 23 147 C29.15026398 142.0324791 31.14902483 134.52441206 32 127 C32.02868636 124.66684301 32.03431002 122.33308107 32 120 C33.03898437 119.61328125 34.07796875 119.2265625 35.1484375 118.828125 C48.85529878 113.75421899 48.85529878 113.75421899 62.3125 108.0625 C68.11029289 105.45652341 74.06065387 103.25906164 80 101 C92.41237484 96.28255588 92.41237484 96.28255588 104.6015625 91.02734375 C108.7145407 89.26559576 112.92787605 87.76573316 117.12402344 86.21508789 C121.46843213 84.60052865 125.71776389 82.86749266 129.9296875 80.9296875 C133.0883683 79.51126103 136.31470973 78.27031481 139.53515625 77 C141.86520434 76.0546873 144.1501809 75.04376772 146.4375 74 C151.51782294 71.70566061 156.74364254 69.84709384 162 68 C161.22398437 67.70867187 160.44796875 67.41734375 159.6484375 67.1171875 C153.67701312 64.85118159 147.78822271 62.50086012 141.9375 59.9375 C136.57935702 57.60527259 131.21112277 55.65497349 125.62109375 53.95703125 C123 53 123 53 120.53515625 51.51171875 C117.74611743 49.84860932 115.10071796 48.94919937 112 48 C107.90024854 46.74497404 104.66190433 45.19824725 101 43 C98.52799604 41.98910229 96.07063495 41.0341004 93.5625 40.125 C92.86237793 39.865979 92.16225586 39.60695801 91.44091797 39.34008789 C88.03562798 38.08548714 84.62121729 36.86167286 81.19140625 35.67578125 C75.04784923 33.54269519 69.20082179 31.31244526 63.4765625 28.2109375 C60.77119229 26.88812241 58.00248859 25.83523708 55.17675781 24.79882812 C45.97302172 21.42123453 36.77845734 17.9196808 27.8671875 13.828125 C25.30118392 12.69006483 22.67534918 11.74619303 20.0390625 10.78515625 C17.05941248 9.63781975 14.17030417 8.30558687 11.2734375 6.96484375 C8.57670389 5.82035371 5.77920972 4.92640324 3 4 C3 8.29 3 12.58 3 17 C3.92941406 17.39832031 4.85882813 17.79664063 5.81640625 18.20703125 C8.29557292 19.26953125 10.77473958 20.33203125 13.25390625 21.39453125 C13.87338135 21.65983643 14.49285645 21.9251416 15.13110352 22.19848633 C16.96335108 22.98428238 18.79419096 23.77335817 20.625 24.5625 C23.5495626 25.80814703 26.48345427 27.01397498 29.4375 28.1875 C30.30246094 28.53167969 31.16742188 28.87585938 32.05859375 29.23046875 C33.01958984 29.61138672 33.01958984 29.61138672 34 30 C34 30.33 34 30.66 34 31 C31.36 30.67 28.72 30.34 26 30 C26.66 30.33 27.32 30.66 28 31 C28.495 32.485 28.495 32.485 29 34 C31.53080311 36.68364024 34.19698624 39.18369432 36.89453125 41.69921875 C42.39253626 47.16960022 45.59736512 51.36294844 45.76245117 59.34106445 C45.65386132 62.92169994 45.39568611 66.43882502 45 70 C40.25 68.125 40.25 68.125 38 67 C37.814375 66.1646875 37.814375 66.1646875 37.625 65.3125 C36.4089671 60.81317826 33.55754423 57.55754423 30.3125 54.3125 C28 52 28 52 27 49 C26.34 49 25.68 49 25 49 C24.46117187 48.2471875 23.92234375 47.494375 23.3671875 46.71875 C20.32483332 43.22456104 17.38659922 42.10713658 13.125 40.5 C12.00738281 40.05781128 12.00738281 40.05781128 10.8671875 39.60668945 C4.82837717 37.24136036 -1.28474925 35.09155508 -7.4375 33.04296875 C-10 32 -10 32 -11 30 C-4.09853015 30.27605879 1.42657675 32.71449525 7.6328125 35.52734375 C10.71922256 36.87720059 13.78883309 37.98980008 17 39 C16.34 38.21625 15.68 37.4325 15 36.625 C13 34 13 34 13 32 C12.01 31.67 11.02 31.34 10 31 C10 30.34 10 29.68 10 29 C9.34 29 8.68 29 8 29 C7.9175 28.38125 7.835 27.7625 7.75 27.125 C7.21351879 24.84276697 7.21351879 24.84276697 5.125 24 C4.42375 23.67 3.7225 23.34 3 23 C0.92694433 21.14174287 0.07584437 19.66804963 -0.23925781 16.89257812 C-0.29548629 14.338783 -0.26104442 11.80331143 -0.1875 9.25 C-0.17396484 8.36183594 -0.16042969 7.47367188 -0.14648438 6.55859375 C-0.11121309 4.37177422 -0.06192752 2.18620034 0 0 Z " fill="#364A93" transform="translate(216,195)"/>
<path d="M0 0 C7.77156596 -0.81805957 14.52815102 3.30875581 21.375 6.5 C26.23382766 8.74996849 31.15448134 10.44866952 36.2734375 12.0078125 C39 13 39 13 41.3984375 14.4453125 C44.54185908 16.32381369 47.81742362 17.52492387 51.25 18.75 C57.10266973 20.88693654 62.87884443 23.15406915 68.625 25.5625 C73.78736218 27.7230659 78.95826489 29.73209939 84.25 31.5625 C89.928074 33.53945499 95.27774221 35.94307251 100.703125 38.5234375 C105.21424801 40.54382198 109.8345719 42.14754698 114.515625 43.7265625 C117.97561532 44.99108811 121.29764974 46.42783311 124.65283203 47.94287109 C134.79179921 52.50930836 145.01619429 56.93592169 155.65234375 60.2109375 C157.89815985 60.96577087 159.91248224 61.8860114 162 63 C162 63.66 162 64.32 162 65 C159.33399497 66.10578618 156.66722466 67.20966252 154 68.3125 C153.25621094 68.62123047 152.51242187 68.92996094 151.74609375 69.24804688 C148.07952048 70.76250105 144.40708077 72.23744041 140.6875 73.6171875 C138.05479583 74.60445156 135.53596725 75.61556718 133 76.8125 C128.04826527 79.0562548 122.96667486 80.90526094 117.86962891 82.78613281 C114.31442924 84.10608725 110.81922589 85.46938428 107.375 87.0625 C102.48806344 89.31872933 97.41114596 91.00504582 92.3359375 92.78515625 C88.97976063 94.00737054 85.77719135 95.40455756 82.5390625 96.90234375 C79.07380114 98.40040289 75.54103424 99.69320906 72 101 C66.93800161 102.87030828 61.96494589 104.82045019 57.05859375 107.07421875 C53.97804644 108.45958822 50.83633677 109.68121965 47.6953125 110.921875 C43.6313339 112.54746644 39.60025185 114.25048064 35.56640625 115.94921875 C33.7364624 116.69846517 31.8759153 117.3746949 30 118 C29.83564453 119.28583984 29.83564453 119.28583984 29.66796875 120.59765625 C28.23856512 130.90563199 26.09172436 139.7578373 17.875 146.875 C15 149 15 149 13 149 C13 149.66 13 150.32 13 151 C8.49646738 152.75747614 4.82360189 153.19294408 0 153 C3.79541663 150.78600697 7.75629421 149.99019802 12 149 C12 148.34 12 147.68 12 147 C13.97946592 145.63636792 15.9819245 144.30581356 18 143 C24.15026398 138.0324791 26.14902483 130.52441206 27 123 C27.02868636 120.66684301 27.03431002 118.33308107 27 116 C28.03898437 115.61328125 29.07796875 115.2265625 30.1484375 114.828125 C43.85529878 109.75421899 43.85529878 109.75421899 57.3125 104.0625 C63.11029289 101.45652341 69.06065387 99.25906164 75 97 C87.41237484 92.28255588 87.41237484 92.28255588 99.6015625 87.02734375 C103.7145407 85.26559576 107.92787605 83.76573316 112.12402344 82.21508789 C116.46843213 80.60052865 120.71776389 78.86749266 124.9296875 76.9296875 C128.0883683 75.51126103 131.31470973 74.27031481 134.53515625 73 C136.86520434 72.0546873 139.1501809 71.04376772 141.4375 70 C146.51782294 67.70566061 151.74364254 65.84709384 157 64 C156.22398437 63.70867187 155.44796875 63.41734375 154.6484375 63.1171875 C148.67701312 60.85118159 142.78822271 58.50086012 136.9375 55.9375 C131.57935702 53.60527259 126.21112277 51.65497349 120.62109375 49.95703125 C118 49 118 49 115.53515625 47.51171875 C112.74611743 45.84860932 110.10071796 44.94919937 107 44 C102.90024854 42.74497404 99.66190433 41.19824725 96 39 C93.52799604 37.98910229 91.07063495 37.0341004 88.5625 36.125 C87.86237793 35.865979 87.16225586 35.60695801 86.44091797 35.34008789 C83.03562798 34.08548714 79.62121729 32.86167286 76.19140625 31.67578125 C70.04784923 29.54269519 64.20082179 27.31244526 58.4765625 24.2109375 C55.77119229 22.88812241 53.00248859 21.83523708 50.17675781 20.79882812 C40.97302172 17.42123453 31.77845734 13.9196808 22.8671875 9.828125 C20.93481265 8.97108845 18.98504904 8.22604907 17 7.5 C11.17237219 5.36708822 5.53365462 2.80421687 0 0 Z " fill="#6472A8" transform="translate(221,199)"/>
<path d="M0 0 C2.20419047 1.60512625 4.07078716 3.38943765 6.0078125 5.30859375 C10.57791644 9.49848938 14.86345111 11.16470817 20.8828125 12.37109375 C18.64351504 13.77002565 17.48448963 14.48843805 14.83984375 13.97265625 C10.17522523 11.84851302 7.02471745 9.63358149 3.4453125 5.93359375 C0.46729661 3.06310963 0.46729661 3.06310963 -3.4140625 2.3125 C-6.14250792 3.09269273 -8.55330188 4.15155428 -11.1171875 5.37109375 C-13.49168329 6.3722904 -15.86671056 7.37222724 -18.2421875 8.37109375 C-19.43457031 8.89445313 -20.62695312 9.4178125 -21.85546875 9.95703125 C-24.36562783 11.04526788 -26.86021527 12.0626727 -29.4296875 12.99609375 C-32.15922835 14.01388864 -34.73077003 15.09142419 -37.3671875 16.30859375 C-41.9045318 18.37245522 -46.56056914 19.87679206 -51.3203125 21.34375 C-54.1289772 22.27559443 -54.1289772 22.27559443 -56.51171875 23.8125 C-59.71399003 25.72810156 -63.06169836 26.98010168 -66.5546875 28.24609375 C-67.25118408 28.50366455 -67.94768066 28.76123535 -68.6652832 29.02661133 C-72.13342973 30.30393594 -75.61144778 31.54966345 -79.1015625 32.765625 C-80.93460938 33.40564453 -80.93460938 33.40564453 -82.8046875 34.05859375 C-83.90167969 34.43371094 -84.99867188 34.80882812 -86.12890625 35.1953125 C-89.0226597 36.33390046 -91.50717417 37.69080688 -94.1171875 39.37109375 C-93.34117187 39.66242188 -92.56515625 39.95375 -91.765625 40.25390625 C-85.82307135 42.50895644 -79.94892487 44.84182338 -74.1171875 47.37109375 C-66.18825998 50.80171139 -58.16046289 53.9271669 -50.02734375 56.83984375 C-42.91836 59.40656623 -36.33324838 61.96805063 -30.1171875 66.37109375 C-32.1171875 67.37109375 -32.1171875 67.37109375 -33.86279297 66.87719727 C-34.56291504 66.58772217 -35.26303711 66.29824707 -35.984375 66 C-36.77787354 65.67684814 -37.57137207 65.35369629 -38.38891602 65.02075195 C-39.24799561 64.66198975 -40.1070752 64.30322754 -40.9921875 63.93359375 C-42.81107059 63.18849119 -44.63008484 62.44370872 -46.44921875 61.69921875 C-47.38588379 61.31314453 -48.32254883 60.92707031 -49.28759766 60.52929688 C-52.88534942 59.05667096 -56.4994975 57.62747977 -60.11474609 56.19848633 C-66.93520459 53.49977645 -73.6655302 50.71583069 -80.30859375 47.6015625 C-86.46107938 44.90610635 -92.80959605 42.67411648 -99.1171875 40.37109375 C-99.1171875 39.38109375 -99.1171875 38.39109375 -99.1171875 37.37109375 C-98.54274902 37.17475342 -97.96831055 36.97841309 -97.37646484 36.77612305 C-94.74686854 35.87460015 -92.11953308 34.96665408 -89.4921875 34.05859375 C-88.58855469 33.74986328 -87.68492187 33.44113281 -86.75390625 33.12304688 C-82.0147544 31.47991028 -77.57817283 29.68419725 -73.1171875 27.37109375 C-71.04442502 26.5319932 -68.96054997 25.71989369 -66.8671875 24.93359375 C-58.90625735 21.9120589 -51.02855247 18.80481444 -43.265625 15.3046875 C-40.58606622 14.14029741 -37.86059767 13.1426127 -35.1171875 12.140625 C-33.07528948 11.35497283 -31.10445091 10.47318657 -29.1171875 9.55859375 C-24.78800274 7.60177202 -20.37709746 5.91083187 -15.9296875 4.24609375 C-15.25228516 3.99239014 -14.57488281 3.73868652 -13.87695312 3.47729492 C-12.5709247 2.99234055 -11.26253725 2.51368301 -9.95166016 2.04199219 C-8.24742948 1.4187255 -6.56205766 0.74453963 -4.87890625 0.06640625 C-2.1171875 -0.62890625 -2.1171875 -0.62890625 0 0 Z " fill="#5D6BA0" transform="translate(234.1171875,157.62890625)"/>
<path d="M0 0 C2.76607164 0.63805748 5.32850775 1.46253397 7.95703125 2.53125 C8.72861572 2.84280029 9.5002002 3.15435059 10.29516602 3.4753418 C11.12588623 3.813479 11.95660645 4.15161621 12.8125 4.5 C18.5451633 6.81716597 24.28213001 9.11908135 30.046875 11.35546875 C31.05000732 11.74476563 32.05313965 12.1340625 33.08666992 12.53515625 C35.01297254 13.28108687 36.94016387 14.0247282 38.8684082 14.765625 C44.4825461 16.9431813 49.95866625 19.32531481 55.42651367 21.84643555 C58.93656493 23.41981494 62.50714629 24.76130185 66.125 26.0625 C71.1799279 27.91704452 76.13388563 29.86765157 81.02734375 32.12109375 C84.29288283 33.57603691 87.64113417 34.77859424 91 36 C91 36.66 91 37.32 91 38 C90.02160156 38.38671875 89.04320312 38.7734375 88.03515625 39.171875 C79.80026848 42.40978677 79.80026848 42.40978677 71.6875 45.9375 C66.41651454 48.33705338 60.99206725 50.3502999 55.58813477 52.42675781 C51.71789773 53.92023673 47.890684 55.44259515 44.125 57.1875 C39.81029147 59.18283952 35.33517009 60.5739489 30.796875 61.97265625 C27.93563848 62.9219976 27.93563848 62.9219976 25.328125 64.62109375 C23 66 23 66 20 66 C20 65.34 20 64.68 20 64 C20.76183594 63.68546875 21.52367187 63.3709375 22.30859375 63.046875 C27.1469579 61.04146064 31.97682386 59.03170656 36.75 56.875 C40.12216696 55.35873788 43.52828113 54.03752232 47 52.76953125 C49.04189802 51.98387908 51.01273659 51.10209282 53 50.1875 C57.92430907 47.96003957 62.9688081 46.0966372 68.03588867 44.22485352 C72.76424895 42.47623759 77.4389198 40.62999265 82.08203125 38.6640625 C84 38 84 38 87 38 C87 37.34 87 36.68 87 36 C86.21238281 35.91363281 85.42476563 35.82726562 84.61328125 35.73828125 C79.88113326 34.77138831 75.64347656 33.02113935 71.1875 31.1875 C70.33607422 30.84396484 69.48464844 30.50042969 68.60742188 30.14648438 C64.48980918 28.47497823 60.40676581 26.74834344 56.35546875 24.921875 C52.33730855 23.11907549 48.26505647 21.55941697 44.125 20.0625 C39.40877029 18.33101707 34.79916292 16.51772166 30.25 14.375 C26.59553455 12.6568558 22.97424319 11.28360456 19.125 10.0625 C12.47923728 7.94318197 6.27096406 5.03433745 0 2 C0 1.34 0 0.68 0 0 Z " fill="#6270A6" transform="translate(251,226)"/>
<path d="M0 0 C0.33 0 0.66 0 1 0 C1 2.97 1 5.94 1 9 C-0.28970703 9.43699219 -0.28970703 9.43699219 -1.60546875 9.8828125 C-8.88611231 12.40761583 -15.83154499 15.23341528 -22.8046875 18.53515625 C-28.09941123 20.96244402 -33.5499398 22.95252896 -39 25 C-42.08652175 26.17930708 -45.16862425 27.36982221 -48.25 28.5625 C-48.9824292 28.84343506 -49.7148584 29.12437012 -50.46948242 29.41381836 C-54.16253305 30.84278352 -57.80190927 32.3405903 -61.41015625 33.97265625 C-66.25921452 36.15405128 -71.20641972 38.01959252 -76.1875 39.875 C-83.58188132 42.65692204 -90.86447436 45.58904397 -98.10546875 48.75 C-102.97592402 50.85330052 -107.83014966 52.76962077 -113 54 C-113 53.34 -113 52.68 -113 52 C-112.23816406 51.68546875 -111.47632812 51.3709375 -110.69140625 51.046875 C-105.95641712 49.08430772 -101.22779734 47.12375476 -96.5625 45 C-91.93596956 42.91972552 -87.2034257 41.1518658 -82.4609375 39.35546875 C-78.91242852 37.96570282 -75.42787275 36.46694589 -71.9375 34.9375 C-66.57935702 32.60527259 -61.21112277 30.65497349 -55.62109375 28.95703125 C-52.94531912 28.07426074 -52.94531912 28.07426074 -50.51953125 26.5078125 C-47.80664471 24.8842866 -45.2669933 23.99234053 -42.25 23.0625 C-38.69963342 21.91916161 -35.26052942 20.75314009 -31.875 19.1875 C-27.30377115 17.07383088 -22.6319509 15.2556124 -17.9375 13.4375 C-16.80320557 12.99796997 -16.80320557 12.99796997 -15.64599609 12.54956055 C-10.77511645 10.66958121 -5.8911519 8.82654821 -1 7 C-0.67 4.69 -0.34 2.38 0 0 Z " fill="#5E6DA2" transform="translate(227,136)"/>
<path d="M0 0 C3.83306734 2.735376 5.80909516 5.65659348 6.69140625 10.20703125 C7.36643041 17.43310953 7.00615819 22.28965716 2.69140625 28.20703125 C1.06640625 30.14453125 1.06640625 30.14453125 -0.30859375 31.20703125 C-0.96859375 31.20703125 -1.62859375 31.20703125 -2.30859375 31.20703125 C-1.64859375 29.88703125 -0.98859375 28.56703125 -0.30859375 27.20703125 C0.35140625 27.20703125 1.01140625 27.20703125 1.69140625 27.20703125 C4.08211823 20.73725136 5.69979741 14.99539337 3.69140625 8.20703125 C1.87020329 5.38710408 0.68449669 3.70357647 -2.30859375 2.20703125 C-2.30859375 1.54703125 -2.30859375 0.88703125 -2.30859375 0.20703125 C-9.23572548 -1.00246794 -13.86213701 -0.59095284 -20.30859375 2.20703125 C-21.37207031 2.60728516 -21.37207031 2.60728516 -22.45703125 3.015625 C-25.6427478 5.0655059 -25.91374468 8.16842493 -26.8359375 11.67578125 C-27.88382759 17.28762239 -26.11483205 21.38030137 -23.30859375 26.20703125 C-22.64859375 26.53703125 -21.98859375 26.86703125 -21.30859375 27.20703125 C-21.30859375 27.86703125 -21.30859375 28.52703125 -21.30859375 29.20703125 C-15.15488536 31.03035225 -9.71212697 31.44322715 -3.30859375 31.20703125 C-3.63859375 31.86703125 -3.96859375 32.52703125 -4.30859375 33.20703125 C-10.6563199 35.09151245 -16.4518052 34.05882769 -22.30859375 31.20703125 C-25.88992827 28.47390754 -27.77261712 25.43096699 -29.30859375 21.20703125 C-30.05161712 14.55998436 -29.73857794 9.00252178 -26.30859375 3.20703125 C-18.89702404 -4.00949716 -8.97597411 -5.13171853 0 0 Z " fill="#606FA4" transform="translate(228.30859375,304.79296875)"/>
<path d="M0 0 C4.06664469 3.27590822 6.59375482 7.08286593 7.32421875 12.328125 C7.59424724 18.39911034 6.53987233 23.01881157 3 28 C-0.32978901 31.32978901 -3.38854296 33.04290514 -8 34 C-11.36574968 33.86375526 -14.66825531 33.4872512 -18 33 C-18 32.67 -18 32.34 -18 32 C-16.53626953 31.80083984 -16.53626953 31.80083984 -15.04296875 31.59765625 C-13.77066406 31.42105469 -12.49835938 31.24445313 -11.1875 31.0625 C-9.92292969 30.88847656 -8.65835937 30.71445313 -7.35546875 30.53515625 C-4.01678297 30.09607545 -4.01678297 30.09607545 -1 29 C-1 28.34 -1 27.68 -1 27 C0 26 1 25 2 24 C4.53052941 19.72459291 4.55617291 15.85387268 4 11 C2.17661115 6.31128581 0.26374351 3.26503314 -4.125 0.8125 C-8.979473 -0.55941628 -13.47183137 -0.98147274 -18.25390625 0.875 C-21.98127525 2.96177749 -23.79221866 4.649369 -26 8.375 C-27.54036109 13.95880895 -27.90350189 18.85288302 -25 24 C-23.47269165 25.63292009 -21.89851664 27.1661775 -20.2421875 28.66796875 C-19 30 -19 30 -19 32 C-24.04755527 29.94358859 -27.25512588 26.76061155 -29.375 21.75 C-30.54226681 14.74639916 -29.63902863 9.1705268 -26 3 C-25.34 3 -24.68 3 -24 3 C-23.67 2.01 -23.34 1.02 -23 0 C-15.23048329 -4.37035315 -7.7742715 -4.26822749 0 0 Z " fill="#6876AB" transform="translate(271,124)"/>
<path d="M0 0 C4.3177458 0.50797009 8.03302114 1.19682779 12 3 C12 3.66 12 4.32 12 5 C12.598125 5.103125 13.19625 5.20625 13.8125 5.3125 C18.76443593 6.86882272 21.92082375 12.39862366 24.375 16.75 C27.70147461 24.90477532 27.58313025 36.15748393 24.87109375 44.453125 C23.7086574 46.77137414 22.51348814 48.89733254 21 51 C20.34 51 19.68 51 19 51 C19 51.99 19 52.98 19 54 C15.1430238 59.259513 8.03301522 61.98899493 2 64 C-0.06145107 64.068991 -2.12501401 64.08467727 -4.1875 64.0625 C-5.27417969 64.05347656 -6.36085938 64.04445313 -7.48046875 64.03515625 C-8.31191406 64.02355469 -9.14335937 64.01195312 -10 64 C-10 63.67 -10 63.34 -10 63 C-9.29875 62.89042969 -8.5975 62.78085938 -7.875 62.66796875 C1.53184479 61.09590094 10.82017527 59.18981351 17.0625 51.4375 C22.11277778 44.27315245 24.86917433 37.0862877 24.59375 28.23828125 C23.31131411 21.2439434 19.63313653 12.48536609 14 8 C13.01 7.67 12.02 7.34 11 7 C11 6.34 11 5.68 11 5 C10.37351562 4.80664062 9.74703125 4.61328125 9.1015625 4.4140625 C8.28429687 4.15367188 7.46703125 3.89328125 6.625 3.625 C5.81289063 3.36976562 5.00078125 3.11453125 4.1640625 2.8515625 C2 2 2 2 0 0 Z " fill="#58669B" transform="translate(266,108)"/>
<path d="M0 0 C0 0.33 0 0.66 0 1 C-1.11375 1.226875 -2.2275 1.45375 -3.375 1.6875 C-11.6922207 3.80004451 -17.87630448 7.11503414 -23 14 C-23.66 14 -24.32 14 -25 14 C-25.28875 15.0725 -25.5775 16.145 -25.875 17.25 C-27 21 -27 21 -28.03515625 22.80078125 C-30.44633096 28.2966977 -30.28009143 36.20316773 -28.35253906 41.92041016 C-24.76480735 50.07571628 -20.46299015 56.45780622 -12.00390625 59.78515625 C-10.62942588 60.28703073 -9.25069613 60.77748402 -7.8671875 61.25390625 C-6 62 -6 62 -3 64 C-5.42963887 64.85946409 -6.6871003 65.09627683 -9.18359375 64.328125 C-11.46562418 63.23654719 -13.74224359 62.14106034 -16 61 C-16.886875 60.566875 -17.77375 60.13375 -18.6875 59.6875 C-24.85287808 55.18844032 -28.62583381 49.19508365 -31 42 C-31.52329571 38.64276952 -31.5626235 35.39210644 -31.5 32 C-31.51546875 31.16210938 -31.5309375 30.32421875 -31.546875 29.4609375 C-31.50082061 22.0231535 -29.51872648 15.91642014 -24.625 10.25 C-23.75875 9.5075 -22.8925 8.765 -22 8 C-21.05125 7.13375 -20.1025 6.2675 -19.125 5.375 C-12.83627466 0.59556874 -7.6691938 -0.46954248 0 0 Z " fill="#56659A" transform="translate(216,288)"/>
<path d="M0 0 C6.85618326 1.92556636 13.43252132 4.2472483 20 7 C20 7.66 20 8.32 20 9 C17.33399497 10.10578618 14.66722466 11.20966252 12 12.3125 C11.25621094 12.62123047 10.51242187 12.92996094 9.74609375 13.24804688 C6.08719196 14.7593324 2.4225102 16.23191531 -1.2890625 17.609375 C-4.043241 18.64146715 -6.70743227 19.70915359 -9.375 20.9375 C-12.71332478 22.43539182 -16.0605734 23.90342271 -19.4375 25.3125 C-20.26121094 25.65925781 -21.08492188 26.00601562 -21.93359375 26.36328125 C-24 27 -24 27 -26 26 C-22.10256389 22.49532877 -18.13957231 20.68938599 -13.25 19 C-11.81304603 18.48387092 -10.3768398 17.96565512 -8.94140625 17.4453125 C-7.91490967 17.0745459 -7.91490967 17.0745459 -6.86767578 16.69628906 C-3.90077396 15.59019704 -1.04517166 14.27059274 1.828125 12.9453125 C6.13091659 11.07251472 10.57452855 9.55511894 15 8 C14.08476562 7.67386719 13.16953125 7.34773438 12.2265625 7.01171875 C11.03804688 6.57472656 9.84953125 6.13773437 8.625 5.6875 C7.44164062 5.25824219 6.25828125 4.82898438 5.0390625 4.38671875 C2 3 2 3 0 0 Z " fill="#5F6DA2" transform="translate(363,255)"/>
<path d="M0 0 C4.13966785 0.97279624 8.03865954 2.47370071 12 4 C12.72171387 4.27569824 13.44342773 4.55139648 14.18701172 4.83544922 C29.65824106 10.75864194 29.65824106 10.75864194 36.5703125 13.96484375 C38.71600884 14.87900698 40.86530495 15.70212557 43.0546875 16.50390625 C43.78478027 16.77130615 44.51487305 17.03870605 45.26708984 17.31420898 C46.73637031 17.84771876 48.20801745 18.3747627 49.68212891 18.89477539 C54.89123348 20.78246697 54.89123348 20.78246697 56 23 C51.29575202 22.39762678 47.36882363 21.07662023 43 19.25 C36.7400055 16.66265029 30.44004574 14.35204348 24.0234375 12.17578125 C21 11 21 11 18.62109375 9.5546875 C15.13526372 7.48708638 11.48911883 6.18842102 7.6875 4.8125 C6.94693359 4.53986328 6.20636719 4.26722656 5.44335938 3.98632812 C3.63056598 3.31968797 1.81550684 2.65921459 0 2 C0 1.34 0 0.68 0 0 Z " fill="#6170A7" transform="translate(179,230)"/>
<path d="M0 0 C5.40172658 1.74134607 10.69756686 3.73113779 16 5.75 C16.92901123 6.10344482 17.85802246 6.45688965 18.81518555 6.82104492 C25.31948371 9.31369324 31.72955887 11.95571333 38.10546875 14.76171875 C40.59095867 15.82501201 43.06893252 16.75117072 45.625 17.625 C48.9723551 18.98873726 50.71642831 20.2406842 53 23 C41.72589094 19.37617923 30.59869717 15.3317816 19.875 10.296875 C15.62254662 8.37864875 11.28881121 6.67609041 6.94897461 4.96679688 C2.16128096 3.08064048 2.16128096 3.08064048 0 2 C0 1.34 0 0.68 0 0 Z " fill="#58679F" transform="translate(151,202)"/>
<path d="M0 0 C3.44650987 0.60497248 6.51446597 1.4855081 9.75 2.8125 C10.6265625 3.17085937 11.503125 3.52921875 12.40625 3.8984375 C14.70654698 4.87537086 16.97886375 5.89515015 19.25 6.9375 C23.09823318 8.67739266 27.01525626 10.10191931 31 11.5 C46.24850299 16.86826347 46.24850299 16.86826347 51 21 C46.1874049 20.37421364 41.8771127 18.99631689 37.375 17.25 C36.66915771 16.98050537 35.96331543 16.71101074 35.23608398 16.43334961 C30.20014053 14.49785327 25.20678171 12.47003832 20.23828125 10.3671875 C16.08628702 8.61423457 11.91846667 6.9008342 7.75 5.1875 C6.9856665 4.87304932 6.22133301 4.55859863 5.43383789 4.23461914 C3.6226608 3.48949762 1.81134553 2.74471197 0 2 C0 1.34 0 0.68 0 0 Z " fill="#6372A8" transform="translate(127,209)"/>
<path d="M0 0 C7.16271741 -0.66321457 11.95129765 1.15557433 18 5 C20.875 7.6875 20.875 7.6875 23 10 C24.67204345 11.45936537 24.67204345 11.45936537 27 12 C29.48624678 11.20582344 31.60740084 10.36962615 33.9375 9.25 C35.15478276 8.69234767 36.37222789 8.13504962 37.58984375 7.578125 C38.71519531 7.05734375 39.84054687 6.5365625 41 6 C44.59709234 4.4453245 47.06150838 3.77494334 51 4 C47.69337638 6.80858895 44.39825895 8.09762729 40.3125 9.5 C39.07886719 9.92667969 37.84523438 10.35335938 36.57421875 10.79296875 C35.39472656 11.19128906 34.21523437 11.58960938 33 12 C32.03707031 12.32613281 31.07414062 12.65226562 30.08203125 12.98828125 C28.0575357 13.66740456 26.0292582 14.335243 24 15 C23.2265625 13.9171875 23.2265625 13.9171875 22.4375 12.8125 C16.11909603 5.52203388 9.11284879 3.45293223 0 1 C0 0.67 0 0.34 0 0 Z " fill="#6977AC" transform="translate(219,288)"/>
<path d="M0 0 C5.44838321 0.7264511 9.27245097 2.95231349 13.07421875 6.8515625 C16.39272375 12.1611705 16.27488466 18.25449088 15.63671875 24.3515625 C14.22767147 28.22295479 11.9238036 31.81154239 8.63671875 34.3515625 C7.97671875 34.3515625 7.31671875 34.3515625 6.63671875 34.3515625 C7.29671875 33.0315625 7.95671875 31.7115625 8.63671875 30.3515625 C9.29671875 30.3515625 9.95671875 30.3515625 10.63671875 30.3515625 C13.02743073 23.88178261 14.64510991 18.13992462 12.63671875 11.3515625 C10.81551579 8.53163533 9.62980919 6.84810772 6.63671875 5.3515625 C6.63671875 4.6915625 6.63671875 4.0315625 6.63671875 3.3515625 C0.70062209 2.45839981 -4.43303322 2.38115828 -10.36328125 3.3515625 C-7.27972881 -0.41057106 -4.62780734 -0.14863031 0 0 Z " fill="#6270A1" transform="translate(219.36328125,301.6484375)"/>
<path d="M0 0 C1.2065625 0.0309375 1.2065625 0.0309375 2.4375 0.0625 C-0.49439994 2.45323149 -3.28393288 3.90357307 -6.8125 5.25 C-8.15054688 5.76626953 -8.15054688 5.76626953 -9.515625 6.29296875 C-10.52882813 6.67388672 -10.52882813 6.67388672 -11.5625 7.0625 C-10.36753906 7.52140625 -9.17257813 7.9803125 -7.94140625 8.453125 C-0.0673259 11.48880542 7.77589414 14.51546025 15.4375 18.0625 C12.25838278 19.112752 10.55754196 19.03811238 7.4609375 17.8046875 C6.71183105 17.51086182 5.96272461 17.21703613 5.19091797 16.91430664 C4.01360107 16.43078735 4.01360107 16.43078735 2.8125 15.9375 C2.01086426 15.6170874 1.20922852 15.2966748 0.38330078 14.96655273 C-5.41323245 12.61804832 -11.0680174 10.05823549 -16.5625 7.0625 C-15.5625 5.0625 -15.5625 5.0625 -12.875 4.02734375 C-11.781875 3.68832031 -10.68875 3.34929687 -9.5625 3 C-6.29816514 1.97989536 -3.23385943 0.07887462 0 0 Z " fill="#6A78AC" transform="translate(110.5625,189.9375)"/>
<path d="M0 0 C0 0.33 0 0.66 0 1 C-0.67804688 1.02578125 -1.35609375 1.0515625 -2.0546875 1.078125 C-12.46512254 1.71255594 -22.1278032 4.75979087 -29.43359375 12.5234375 C-33.11324967 17.17487199 -34.59029463 22.30387341 -36 28 C-36.33 28 -36.66 28 -37 28 C-37.6119424 20.65669115 -35.00903816 16.01355723 -31 10 C-30.34 10 -29.68 10 -29 10 C-28.67 9.01 -28.34 8.02 -28 7 C-27.01 7 -26.02 7 -25 7 C-25 6.34 -25 5.68 -25 5 C-16.62240048 -0.51935969 -9.7174802 -0.58304881 0 0 Z " fill="#6271A6" transform="translate(265,107)"/>
<path d="M0 0 C4.15376473 5.417954 4.71616989 9.19638608 4 16 C2.34270841 21.29612748 -0.22667531 25.04508472 -5 28 C-10.40666072 30.64046221 -15.23792569 29.8426749 -21 29 C-21 28.67 -21 28.34 -21 28 C-19.53626953 27.80083984 -19.53626953 27.80083984 -18.04296875 27.59765625 C-16.13451172 27.33275391 -16.13451172 27.33275391 -14.1875 27.0625 C-12.92292969 26.88847656 -11.65835937 26.71445313 -10.35546875 26.53515625 C-7.01678297 26.09607545 -7.01678297 26.09607545 -4 25 C-4 24.34 -4 23.68 -4 23 C-3 22 -2 21 -1 20 C2.60900093 13.93325651 1.13560996 6.67170851 0 0 Z " fill="#606FA7" transform="translate(274,128)"/>
<path d="M0 0 C0.66 0.33 1.32 0.66 2 1 C-0.53744509 4.07993335 -3.10522031 4.87188638 -6.875 6 C-10.99225483 7.23827213 -14.38788129 8.65412217 -18 11 C-17.37351563 11.26554688 -16.74703125 11.53109375 -16.1015625 11.8046875 C-14.87566406 12.33449219 -14.87566406 12.33449219 -13.625 12.875 C-12.81289062 13.22304687 -12.00078125 13.57109375 -11.1640625 13.9296875 C-9 15 -9 15 -7 17 C-12.76044212 16.39363767 -17.72014369 14.24341721 -23 12 C-23 11.01 -23 10.02 -23 9 C-22.40985107 8.79842285 -21.81970215 8.5968457 -21.21166992 8.38916016 C-18.53539637 7.4722277 -15.86144704 6.54869384 -13.1875 5.625 C-12.25873047 5.30789062 -11.32996094 4.99078125 -10.37304688 4.6640625 C-9.0340332 4.2 -9.0340332 4.2 -7.66796875 3.7265625 C-6.84578857 3.44377441 -6.0236084 3.16098633 -5.17651367 2.86962891 C-2.76699724 1.99372356 -2.76699724 1.99372356 0 0 Z " fill="#6977A9" transform="translate(158,186)"/>
<path d="M0 0 C2.89306653 0.66113243 5.56016626 1.55597664 8.30859375 2.671875 C9.13262695 3.00445312 9.95666016 3.33703125 10.80566406 3.6796875 C11.67416992 4.03289062 12.54267578 4.38609375 13.4375 4.75 C15.23279942 5.47463628 17.02837311 6.19859345 18.82421875 6.921875 C19.70255371 7.27572266 20.58088867 7.62957031 21.48583984 7.99414062 C26.63483552 10.05413889 31.81520282 12.03204778 37 14 C37 14.33 37 14.66 37 15 C32.07694344 15.31929326 28.89679475 14.36387893 24.4375 12.3125 C23.21061937 11.75953043 21.9827273 11.20880025 20.75390625 10.66015625 C20.13402832 10.38187988 19.51415039 10.10360352 18.87548828 9.81689453 C14.89283581 8.08219587 10.8096765 6.59962961 6.7421875 5.078125 C4.41280293 4.16229859 2.2127672 3.16461431 0 2 C0 1.34 0 0.68 0 0 Z " fill="#6978AA" transform="translate(251,226)"/>
<path d="M0 0 C-2.43033339 2.43033339 -4.28983409 2.86352471 -7.5625 3.875 C-12.11422158 5.33979717 -16.43110822 6.98897155 -20.76953125 8.98828125 C-26.02750944 11.37324859 -31.35575332 13.72132627 -37 15 C-37 14.34 -37 13.68 -37 13 C-36.23816406 12.68546875 -35.47632813 12.3709375 -34.69140625 12.046875 C-29.91303372 10.06632609 -25.14351711 8.08515508 -20.4375 5.9375 C-6.40937516 -0.32277429 -6.40937516 -0.32277429 0 0 Z " fill="#5F6EA2" transform="translate(299,297)"/>
<path d="M0 0 C8.64012774 -0.90948713 16.75143034 4.31635979 24.37109375 7.828125 C27.86283059 9.38461988 31.40209099 10.71018356 35 12 C35 12.33 35 12.66 35 13 C30.44973478 13.587131 27.33120309 11.96180642 23.32421875 10.07421875 C21.2375026 9.10977011 19.16059063 8.28057266 17 7.5 C11.17237219 5.36708822 5.53365462 2.80421687 0 0 Z " fill="#6270A4" transform="translate(221,199)"/>
<path d="M0 0 C0.79921875 0.01804687 1.5984375 0.03609375 2.421875 0.0546875 C3.02515625 0.07789063 3.6284375 0.10109375 4.25 0.125 C4.25 0.455 4.25 0.785 4.25 1.125 C3.13625 1.351875 2.0225 1.57875 0.875 1.8125 C-7.4422207 3.92504451 -13.62630448 7.24003414 -18.75 14.125 C-19.41 14.125 -20.07 14.125 -20.75 14.125 C-21.08 14.785 -21.41 15.445 -21.75 16.125 C-21.26066082 11.88406042 -18.74539148 8.97483537 -15.75 6.125 C-13.4800448 4.56091454 -11.22240946 3.38368118 -8.75 2.125 C-8.11707031 1.76148438 -7.48414063 1.39796875 -6.83203125 1.0234375 C-4.39318998 -0.02897055 -2.64281486 -0.07772985 0 0 Z " fill="#6775AA" transform="translate(211.75,287.875)"/>
<path d="M0 0 C2.42830441 1.49192872 4.21864584 3.23340695 6.2421875 5.23828125 C10.81229144 9.42817688 15.09782611 11.09439567 21.1171875 12.30078125 C18.87789004 13.69971315 17.71886463 14.41812555 15.07421875 13.90234375 C9.5618135 11.392141 5.54586415 8.28792332 1.2578125 4.0078125 C-1.15439729 2.08420725 -2.85172514 1.6558212 -5.8828125 1.30078125 C-2.44622571 -0.90845312 -2.44622571 -0.90845312 0 0 Z " fill="#7784AF" transform="translate(233.8828125,157.69921875)"/>
<path d="M0 0 C2.58460486 1.39568662 4.29972922 2.43275375 6.125 4.6875 C5.795 5.6775 5.465 6.6675 5.125 7.6875 C4.568125 7.06875 4.01125 6.45 3.4375 5.8125 C-0.9447607 1.78555774 -4.95877075 1.36906135 -10.71484375 1.484375 C-13.36725884 1.73378835 -15.51252028 2.46815563 -17.875 3.6875 C-16.875 0.6875 -16.875 0.6875 -15.08203125 -0.48046875 C-10.16772498 -2.33311873 -4.83587772 -1.9507787 0 0 Z " fill="#5666A1" transform="translate(267.875,122.3125)"/>
<path d="M0 0 C0.66 0 1.32 0 2 0 C0.4114658 4.28904235 -2.43127368 6.32345526 -6 9 C-6.66 9 -7.32 9 -8 9 C-8 9.66 -8 10.32 -8 11 C-12.50353262 12.75747614 -16.17639811 13.19294408 -21 13 C-17.20458337 10.78600697 -13.24370579 9.99019802 -9 9 C-9 8.34 -9 7.68 -9 7 C-7.02053408 5.63636792 -5.0180755 4.30581356 -3 3 C-2.4225 2.4225 -1.845 1.845 -1.25 1.25 C-0.8375 0.8375 -0.425 0.425 0 0 Z " fill="#505F97" transform="translate(242,339)"/>
<path d="M0 0 C-0.61746094 0.24234375 -1.23492187 0.4846875 -1.87109375 0.734375 C-6.17284367 2.43674179 -10.42825443 4.17677256 -14.625 6.125 C-18.6833173 7.96245561 -22.65148875 9.05123391 -27 10 C-24.55267213 6.32900819 -22.96648332 5.98090811 -18.875 4.5 C-17.70839844 4.07460937 -16.54179687 3.64921875 -15.33984375 3.2109375 C-14.23769531 2.81132812 -13.13554687 2.41171875 -12 2 C-10.47866264 1.37622787 -8.95772363 0.75148157 -7.4375 0.125 C-4.00120067 -0.99960705 -3.2320627 -1.0325627 0 0 Z " fill="#57659E" transform="translate(186,178)"/>
<path d="M0 0 C7.93118416 0.31724737 15.0352049 3.32565928 22 7 C22.99 8.485 22.99 8.485 24 10 C20.99423287 9.01535215 17.99574221 8.01455803 15 7 C13.78570312 6.59007812 12.57140625 6.18015625 11.3203125 5.7578125 C10.04662041 5.31844566 8.7731822 4.87834219 7.5 4.4375 C6.2934375 4.02371094 5.086875 3.60992187 3.84375 3.18359375 C1 2 1 2 0 0 Z " fill="#6976AA" transform="translate(205,225)"/>
<path d="M0 0 C8.30838336 0.41541917 17.07693441 2.38921824 23.35546875 8.16796875 C23.89816406 8.77253906 24.44085938 9.37710938 25 10 C16.55823333 7.286575 8.28889147 4.14265947 0 1 C0 0.67 0 0.34 0 0 Z " fill="#6E7CAC" transform="translate(179,215)"/>
<path d="M0 0 C-2.93189994 2.39073149 -5.72143288 3.84107307 -9.25 5.1875 C-10.58804688 5.70376953 -10.58804688 5.70376953 -11.953125 6.23046875 C-12.96632813 6.61138672 -12.96632813 6.61138672 -14 7 C-12.68 7.99 -11.36 8.98 -10 10 C-14.15654359 9.53816182 -16.21466571 9.11990898 -19 6 C-16.77490707 5.00137441 -14.54770336 4.00814139 -12.31640625 3.0234375 C-10.62326437 2.27537144 -8.93512063 1.51596392 -7.25 0.75 C-4.72024175 -0.09325275 -2.64931572 -0.15138947 0 0 Z " fill="#6D7BB0" transform="translate(113,190)"/>
<path d="M0 0 C1.2065625 0.0309375 1.2065625 0.0309375 2.4375 0.0625 C-1.47356055 3.43172596 -5.86560074 4.71347171 -10.69335938 6.34375 C-13.87936128 7.25676085 -13.87936128 7.25676085 -16.5625 9.0625 C-18.22867115 9.10313832 -19.89638095 9.105221 -21.5625 9.0625 C-17.65143945 5.69327404 -13.25939926 4.41152829 -8.43164062 2.78125 C-0.32571292 0.00794422 -0.32571292 0.00794422 0 0 Z " fill="#6271A7" transform="translate(267.5625,291.9375)"/>
<path d="M0 0 C-0.8125 1.9375 -0.8125 1.9375 -2 4 C-2.99 4.33 -3.98 4.66 -5 5 C-7.38311806 10.31618644 -8.37372476 16.23826782 -9 22 C-9.33 22 -9.66 22 -10 22 C-10.32926038 15.25625967 -10.49457378 9.90462466 -7 4 C-2.79487179 0 -2.79487179 0 0 0 Z " fill="#7582B2" transform="translate(209,304)"/>
<path d="M0 0 C1.32 0.33 2.64 0.66 4 1 C4 1.66 4 2.32 4 3 C1.6062703 3.98459071 -0.7897507 4.96278703 -3.1875 5.9375 C-3.86103516 6.21529297 -4.53457031 6.49308594 -5.22851562 6.77929688 C-8.80221811 8.22621056 -12.16443184 9.41163129 -16 10 C-13.62916021 7.27821353 -11.3466216 6.11230393 -8 4.8125 C-7.13375 4.46832031 -6.2675 4.12414062 -5.375 3.76953125 C-3 3 -3 3 0 3 C0 2.01 0 1.02 0 0 Z " fill="#6978AE" transform="translate(338,261)"/>
<path d="M0 0 C6.85618326 1.92556636 13.43252132 4.2472483 20 7 C20 7.66 20 8.32 20 9 C18.1875 9.6875 18.1875 9.6875 16 10 C15.37931641 9.34644531 15.37931641 9.34644531 14.74609375 8.6796875 C12.38867668 6.41192611 9.91689536 5.606614 6.875 4.4375 C1.1091314 2.21826281 1.1091314 2.21826281 0 0 Z " fill="#50609C" transform="translate(363,255)"/>
<path d="M0 0 C0 0.66 0 1.32 0 2 C-2.18109952 3.01643473 -4.36816462 4.01288256 -6.5625 5 C-7.17158203 5.28617188 -7.78066406 5.57234375 -8.40820312 5.8671875 C-12.77423025 7.807644 -16.25080495 8.29338657 -21 8 C-17.38275548 6.1324502 -13.67009611 4.49517152 -9.9375 2.875 C-9.31294922 2.59785156 -8.68839844 2.32070312 -8.04492188 2.03515625 C-5.18389455 0.79547952 -3.15344981 0 0 0 Z " fill="#566398" transform="translate(165,168)"/>
<path d="M0 0 C0.66 0 1.32 0 2 0 C1.5 1.8125 1.5 1.8125 0 4 C-6.6100608 7.42743893 -12.66452005 7.3300966 -20 7 C-20 6.67 -20 6.34 -20 6 C-19.29875 5.89042969 -18.5975 5.78085938 -17.875 5.66796875 C-8.26863475 4.44131969 -8.26863475 4.44131969 0 0 Z " fill="#6574AC" transform="translate(276,165)"/>
<path d="M0 0 C4.60416626 0.60875755 8.56483324 1.84722956 12.875 3.5625 C14.02742188 4.01753906 15.17984375 4.47257813 16.3671875 4.94140625 C17.67042969 5.46541016 17.67042969 5.46541016 19 6 C18.67 6.99 18.34 7.98 18 9 C17.28714844 8.67386719 16.57429688 8.34773437 15.83984375 8.01171875 C10.58399401 5.6136931 5.32216173 3.24713495 0 1 C0 0.67 0 0.34 0 0 Z " fill="#56659D" transform="translate(286,241)"/>
<path d="M0 0 C4 0 4 0 5.45703125 1.36328125 C6.22080078 2.17345703 6.22080078 2.17345703 7 3 C9.26027345 4.2048149 9.26027345 4.2048149 11.6875 5.1875 C12.49574219 5.53167969 13.30398437 5.87585938 14.13671875 6.23046875 C14.75160156 6.48441406 15.36648437 6.73835937 16 7 C13.13421241 8.16161779 11.98369837 7.9946154 8.984375 7.00390625 C7.91703125 6.52824219 6.8496875 6.05257812 5.75 5.5625 C4.67234375 5.08941406 3.5946875 4.61632812 2.484375 4.12890625 C1.66453125 3.75636719 0.8446875 3.38382813 0 3 C0 2.01 0 1.02 0 0 Z " fill="#7380B2" transform="translate(135,195)"/>
<path d="M0 0 C2.91517292 1.07401108 4.77810176 1.77810176 7 4 C8.68761858 4.60311615 10.40014476 5.13850237 12.125 5.625 C13.49011719 6.01558594 13.49011719 6.01558594 14.8828125 6.4140625 C15.58148438 6.60742188 16.28015625 6.80078125 17 7 C15.28125 8.10546875 15.28125 8.10546875 13 9 C8.41409808 7.81315566 3.43286635 5.2836113 0 2 C0 1.34 0 0.68 0 0 Z " fill="#6372A6" transform="translate(196,344)"/>
<path d="M0 0 C0.33 0 0.66 0 1 0 C0.24615385 7.53846154 0.24615385 7.53846154 -1 9.875 C-2.31998639 12.67997108 -2.42392879 15.16690815 -2.625 18.25 C-2.69976562 19.32765625 -2.77453125 20.4053125 -2.8515625 21.515625 C-2.90054688 22.33546875 -2.94953125 23.1553125 -3 24 C-3.33 24 -3.66 24 -4 24 C-4.41732107 15.20148083 -4.71248522 7.76297789 0 0 Z " fill="#616FA3" transform="translate(189,301)"/>
<path d="M0 0 C2.7714638 0.26920269 4.99386387 0.92667531 7.453125 2.23828125 C7.123125 3.22828125 6.793125 4.21828125 6.453125 5.23828125 C6.453125 4.57828125 6.453125 3.91828125 6.453125 3.23828125 C0.51702834 2.34511856 -4.61662697 2.26787703 -10.546875 3.23828125 C-7.44177938 -0.60757247 -4.65844407 -0.12940122 0 0 Z " fill="#4A5A96" transform="translate(219.546875,301.76171875)"/>
<path d="M0 0 C3.61055091 0.76242216 6.85834625 2.12473374 10.25 3.5625 C11.32765625 4.01753906 12.4053125 4.47257813 13.515625 4.94140625 C14.33546875 5.29074219 15.1553125 5.64007813 16 6 C16 6.66 16 7.32 16 8 C12.38944909 7.23757784 9.14165375 5.87526626 5.75 4.4375 C4.67234375 3.98246094 3.5946875 3.52742187 2.484375 3.05859375 C1.66453125 2.70925781 0.8446875 2.35992187 0 2 C0 1.34 0 0.68 0 0 Z " fill="#5F6DA1" transform="translate(251,226)"/>
<path d="M0 0 C0.66 0.66 1.32 1.32 2 2 C1.66982243 7.33000928 0.37405278 12.78243403 -3 17 C-3.66 17 -4.32 17 -5 17 C-4.38722388 14.03824877 -3.74627478 12.61941217 -2 10 C-1.56261304 8.28555111 -1.19151312 6.55332216 -0.875 4.8125 C-0.62363281 3.46091797 -0.62363281 3.46091797 -0.3671875 2.08203125 C-0.24601563 1.39496094 -0.12484375 0.70789063 0 0 Z " fill="#6C7BAF" transform="translate(248,322)"/>
<path d="M0 0 C4.05819183 0.65503282 7.53971282 1.94559121 11.3125 3.5625 C12.38113281 4.01753906 13.44976562 4.47257812 14.55078125 4.94140625 C15.76314453 5.46541016 15.76314453 5.46541016 17 6 C17 6.33 17 6.66 17 7 C12.63278182 7.32409782 9.66813458 6.24972949 5.6875 4.5 C4.61886719 4.0359375 3.55023438 3.571875 2.44921875 3.09375 C1.64097656 2.7328125 0.83273438 2.371875 0 2 C0 1.34 0 0.68 0 0 Z " fill="#6472A9" transform="translate(236,253)"/>
<path d="M0 0 C-2.0762657 1.03513247 -4.16131479 2.05266211 -6.25 3.0625 C-7.41015625 3.63097656 -8.5703125 4.19945312 -9.765625 4.78515625 C-12.90644333 5.96485975 -13.99353048 6.30230734 -17 5 C-11.87317183 1.63551901 -6.16164337 -2.0310094 0 0 Z " fill="#6E7CAF" transform="translate(182,163)"/>
<path d="M0 0 C-2.12282669 1.00460531 -4.24833021 2.00355602 -6.375 3 C-8.15003906 3.8353125 -8.15003906 3.8353125 -9.9609375 4.6875 C-13 6 -13 6 -15 6 C-14 3 -14 3 -11.85546875 1.796875 C-10.97503906 1.45140625 -10.09460938 1.1059375 -9.1875 0.75 C-8.31480469 0.39421875 -7.44210938 0.0384375 -6.54296875 -0.328125 C-3.86358764 -1.03604136 -2.56787877 -0.9337741 0 0 Z " fill="#6472A8" transform="translate(214,150)"/>
<path d="M0 0 C4.3177458 0.50797009 8.03302114 1.19682779 12 3 C12 3.66 12 4.32 12 5 C12.99 5.33 13.98 5.66 15 6 C14.67 6.66 14.34 7.32 14 8 C13.01 7.67 12.02 7.34 11 7 C11 6.34 11 5.68 11 5 C10.37351562 4.80664062 9.74703125 4.61328125 9.1015625 4.4140625 C8.28429687 4.15367188 7.46703125 3.89328125 6.625 3.625 C5.81289063 3.36976562 5.00078125 3.11453125 4.1640625 2.8515625 C2 2 2 2 0 0 Z " fill="#717FB1" transform="translate(266,108)"/>
<path d="M0 0 C0.87011719 0.10828125 0.87011719 0.10828125 1.7578125 0.21875 C6.20087574 0.7466387 10.51631578 1.11496626 15 1 C14.67 1.66 14.34 2.32 14 3 C12.07421875 3.44921875 12.07421875 3.44921875 9.6875 3.6875 C8.51767578 3.81705078 8.51767578 3.81705078 7.32421875 3.94921875 C4.94691472 4.00115985 3.21044073 3.88320038 1 3 C0.67 2.01 0.34 1.02 0 0 Z " fill="#6776AB" transform="translate(210,335)"/>
<path d="M0 0 C-1.9151579 0.81604999 -3.83218834 1.62770632 -5.75 2.4375 C-6.81734375 2.88996094 -7.8846875 3.34242188 -8.984375 3.80859375 C-11.3413841 4.73979553 -13.52992835 5.4784072 -16 6 C-16 5.34 -16 4.68 -16 4 C-14.08959948 3.1319092 -12.17139263 2.28098217 -10.25 1.4375 C-9.18265625 0.96183594 -8.1153125 0.48617188 -7.015625 -0.00390625 C-4.01630163 -0.9946154 -2.86578759 -1.16161779 0 0 Z " fill="#4C5B97" transform="translate(278,306)"/>
<path d="M0 0 C-1.9151579 0.81604999 -3.83218834 1.62770632 -5.75 2.4375 C-6.81734375 2.88996094 -7.8846875 3.34242188 -8.984375 3.80859375 C-11.3413841 4.73979553 -13.52992835 5.4784072 -16 6 C-16 5.34 -16 4.68 -16 4 C-14.08959948 3.1319092 -12.17139263 2.28098217 -10.25 1.4375 C-9.18265625 0.96183594 -8.1153125 0.48617188 -7.015625 -0.00390625 C-4.01630163 -0.9946154 -2.86578759 -1.16161779 0 0 Z " fill="#6C7BB0" transform="translate(287,286)"/>
<path d="M0 0 C5.90528268 0.38832925 10.75789181 1.16052473 16 4 C16.33 4.99 16.66 5.98 17 7 C11.27789404 5.13236819 5.62338249 3.14710968 0 1 C0 0.67 0 0.34 0 0 Z " fill="#7280B2" transform="translate(347,250)"/>
<path d="M0 0 C0.33 0 0.66 0 1 0 C1.42244894 3.44999969 1.62172957 6.00600025 -0.265625 9.0234375 C-1.77188571 10.81486407 -3.21807686 12.48121058 -5 14 C-5.66 14 -6.32 14 -7 14 C-6.34 12.68 -5.68 11.36 -5 10 C-4.34 10 -3.68 10 -3 10 C-2.01 6.7 -1.02 3.4 0 0 Z " fill="#59679B" transform="translate(233,322)"/>
<path d="M0 0 C5.54436129 1.28708387 10.70201036 2.91864693 16 5 C16 5.33 16 5.66 16 6 C9.58076669 5.70887831 5.37899794 4.54784971 0 1 C0 0.67 0 0.34 0 0 Z " fill="#5A6AA1" transform="translate(288,225)"/>
<path d="M0 0 C1.66666667 1.66666667 3.33333333 3.33333333 5 5 C5.763125 5.721875 6.52625 6.44375 7.3125 7.1875 C9 9 9 9 9 11 C5.17035345 9.43977363 2.67809511 7.12444429 0 4 C0 2.68 0 1.36 0 0 Z " fill="#58679E" transform="translate(243,145)"/>
<path d="M0 0 C0.66 0 1.32 0 2 0 C1.70351562 0.55171875 1.40703125 1.1034375 1.1015625 1.671875 C-0.07628804 4.16123288 -0.85965717 6.6060884 -1.625 9.25 C-1.88539063 10.14203125 -2.14578125 11.0340625 -2.4140625 11.953125 C-2.60742188 12.62859375 -2.80078125 13.3040625 -3 14 C-3.33 14 -3.66 14 -4 14 C-4.31549088 8.7418187 -3.70016294 5.53627373 -1 1 C-0.67 0.67 -0.34 0.34 0 0 Z " fill="#6E7DB1" transform="translate(232,121)"/>
<path d="M0 0 C2.84550012 0.66010476 5.52325999 1.51724966 8.25 2.5625 C8.95640625 2.83191406 9.6628125 3.10132813 10.390625 3.37890625 C10.92171875 3.58386719 11.4528125 3.78882813 12 4 C11.34 4.66 10.68 5.32 10 6 C5.05 4.02 5.05 4.02 0 2 C0 1.34 0 0.68 0 0 Z " fill="#6877AC" transform="translate(179,230)"/>
<path d="M0 0 C-4.33664919 3.11696661 -7.80408388 3.55966813 -13 4 C-11.72807637 1.45615274 -10.80051531 1.30631844 -8.1875 0.3125 C-7.50042969 0.04050781 -6.81335938 -0.23148438 -6.10546875 -0.51171875 C-3.70623504 -1.06812731 -2.3105636 -0.77364938 0 0 Z " fill="#6D7BAD" transform="translate(197,173)"/>
<path d="M0 0 C3.11799003 0.75035741 6.18070403 1.63363411 9.25 2.5625 C10.14203125 2.83191406 11.0340625 3.10132813 11.953125 3.37890625 C12.62859375 3.58386719 13.3040625 3.78882813 14 4 C12.29296875 5.109375 12.29296875 5.109375 10 6 C7.67578125 5.390625 7.67578125 5.390625 5.3125 4.25 C4.52488281 3.88390625 3.73726562 3.5178125 2.92578125 3.140625 C1 2 1 2 0 0 Z " fill="#5E6DA6" transform="translate(241,166)"/>
<path d="M0 0 C0.66 0 1.32 0 2 0 C0.7455037 3.7634889 -1.04721767 5.39056445 -4 8 C-6.3125 8.8125 -6.3125 8.8125 -8 9 C-7.34 7.68 -6.68 6.36 -6 5 C-5.34 5 -4.68 5 -4 5 C-3.67 4.01 -3.34 3.02 -3 2 C-2.01 2 -1.02 2 0 2 C0 1.34 0 0.68 0 0 Z " fill="#515E95" transform="translate(240,112)"/>
<path d="M0 0 C3.07388417 4.00941413 4.1276781 6.04110792 4.0625 11.125 C4.05347656 12.03507813 4.04445313 12.94515625 4.03515625 13.8828125 C4.02355469 14.58148438 4.01195312 15.28015625 4 16 C3.67 16 3.34 16 3 16 C2.8046875 14.01432292 2.609375 12.02864583 2.4140625 10.04296875 C2.07334609 7.70011858 2.07334609 7.70011858 0 5 C-0.125 2.3125 -0.125 2.3125 0 0 Z " fill="#909BC2" transform="translate(274,128)"/>
<path d="M0 0 C0.66 0.33 1.32 0.66 2 1 C-2.51350747 4.52273754 -5.28341664 5.45732667 -11 5 C-7.41161963 3.13404221 -3.77010767 1.46615298 0 0 Z " fill="#6D79A8" transform="translate(336,280)"/>
<path d="M0 0 C4.19360449 0.67097672 7.40334352 2.8558394 11 5 C10.01 5.495 10.01 5.495 9 6 C6.8359375 5.22265625 6.8359375 5.22265625 4.375 4.0625 C3.55773437 3.68222656 2.74046875 3.30195313 1.8984375 2.91015625 C1.27195313 2.60980469 0.64546875 2.30945313 0 2 C0 1.34 0 0.68 0 0 Z " fill="#616FA2" transform="translate(193,219)"/>
<path d="M0 0 C0.99 0.33 1.98 0.66 3 1 C1.38405168 3.04119788 -0.2856382 5.04072937 -2 7 C-2.66 7 -3.32 7 -4 7 C-4.33 7.66 -4.66 8.32 -5 9 C-4.42647107 5.12867972 -2.51295648 2.91827204 0 0 Z " fill="#7583B7" transform="translate(195,295)"/>
<path d="M0 0 C1.62723299 0.45034123 3.25173664 0.91055354 4.875 1.375 C5.77992188 1.63023437 6.68484375 1.88546875 7.6171875 2.1484375 C10 3 10 3 12 5 C7.55578397 5.39213671 4.81312925 4.25321274 1 2 C0.67 1.34 0.34 0.68 0 0 Z " fill="#50619D" transform="translate(244,207)"/>
<path d="M0 0 C-4.10457614 2.98514628 -6.97745369 3.2954439 -12 3 C-3.33333333 -1.66666667 -3.33333333 -1.66666667 0 0 Z " fill="#7483B8" transform="translate(233,349)"/>
<path d="M0 0 C4.30840713 1.07710178 7.63576723 2.03947516 11 5 C6.62886504 4.49172849 3.61004338 3.54826592 0 1 C0 0.67 0 0.34 0 0 Z " fill="#7E8CBE" transform="translate(167,225)"/>
<path d="M0 0 C3.48539917 0.64544429 6.02819057 2.10134397 9 4 C8.01 4.495 8.01 4.495 7 5 C4.64018187 4.06421005 2.30368736 3.06652192 0 2 C0 1.34 0 0.68 0 0 Z " fill="#6470A0" transform="translate(220,230)"/>
<path d="M0 0 C3.94727588 -0.17942163 6.5980513 -0.09350689 10 2 C10 2.66 10 3.32 10 4 C6.58978257 3.21302675 3.31114834 2.12880057 0 1 C0 0.67 0 0.34 0 0 Z " fill="#4D598E" transform="translate(141,216)"/>
<path d="M0 0 C1.98 0 3.96 0 6 0 C5.01 0.66 4.02 1.32 3 2 C2.26393501 5.56769552 2.26393501 5.56769552 2 9 C1.67 9 1.34 9 1 9 C0.67 6.03 0.34 3.06 0 0 Z " fill="#5868A2" transform="translate(248,315)"/>
<path d="M0 0 C0.556875 0.28875 1.11375 0.5775 1.6875 0.875 C4.08494645 2.0413253 6.51596939 3.0339881 9 4 C7.02 4.99 7.02 4.99 5 6 C3.31237149 4.3545622 1.6459651 2.68711423 0 1 C0 0.67 0 0.34 0 0 Z " fill="#7482B5" transform="translate(239,297)"/>
<path d="M0 0 C0 0.66 0 1.32 0 2 C-3.6441774 4.4294516 -5.71241272 4.16179575 -10 4 C-8.66666667 3.33333333 -7.33333333 2.66666667 -6 2 C-5.29875 1.62875 -4.5975 1.2575 -3.875 0.875 C-2 0 -2 0 0 0 Z " fill="#4C5C94" transform="translate(294,281)"/>
<path d="M0 0 C1.27875 0.28875 2.5575 0.5775 3.875 0.875 C4.95394531 1.11863281 4.95394531 1.11863281 6.0546875 1.3671875 C8 2 8 2 10 4 C3.47692308 3.38461538 3.47692308 3.38461538 1.0625 1.4375 C0.711875 0.963125 0.36125 0.48875 0 0 Z " fill="#55649B" transform="translate(340,246)"/>
<path d="M0 0 C0.66 0 1.32 0 2 0 C2 0.66 2 1.32 2 2 C3.98 2.66 5.96 3.32 8 4 C6.3125 4.6875 6.3125 4.6875 4 5 C1.25 3.5625 1.25 3.5625 -1 2 C-0.67 1.34 -0.34 0.68 0 0 Z " fill="#405191" transform="translate(95,195)"/>
<path d="M0 0 C1.1875 1.625 1.1875 1.625 2 4 C0.625 7.25 0.625 7.25 -1 10 C-1.33 10 -1.66 10 -2 10 C-2.17942163 6.05272412 -2.09350689 3.4019487 0 0 Z " fill="#606EA1" transform="translate(289,148)"/>
</svg>
